{"title":"De Indiaan-AC3-5,1-DVDRip-2009-Nederlands","uid":5151676,"size":1404930807,"categoryP":"video","categoryS":"movies","magnet":"?xt=urn:btih:450911843bfea6b94ee7608702ac6c07dc041dd5&amp;dn=De+Indiaan-AC3-5%2C1-DVDRip-2009-Nederlands&amp;tr=udp%3A%2F%2Ftracker.openbittorrent.com%3A80&amp;tr=udp%3A%2F%2Fopen.demonii.com%3A1337&amp;tr=udp%3A%2F%2Ftracker.coppersurfer.tk%3A6969&amp;tr=udp%3A%2F%2Fexodus.desync.com%3A6969","seeders":1,"leechers":0,"uploader":"FatFreddy31","files":-1,"time":1257600011,"description":" &lt;a href=&quot;http://www.imdb.com/title/tt1267493/&quot; rel=&quot;nofollow&quot; target=&quot;_NEW&quot;&gt;http://www.imdb.com/title/tt1267493/&lt;/a&gt;\n &lt;a href=&quot;\nhttp://www.moviemeter.nl/film/54790&quot; rel=&quot;nofollow&quot; target=&quot;_NEW&quot;&gt;\nhttp://www.moviemeter.nl/film/54790&lt;/a&gt;\n\nNederland\nFamilie\n75 minuten\n\nGeregisseerd door Ineke Houtman\nMet Bastiaan Ragas, Angelique de Bruijne en Hans Dagelet\n\nDe achtjarige Koos wil graag op zijn imposante, blonde vader lijken. Eenvoudig is dat echter niet, aangezien hij is geadopteerd uit Peru en dus klein en donker is. Dan ziet hij voor de supermarkt een Peruaanse jongen die vreemde muziek staat te maken. Zo komt hij erachter dat ook hij van oorsprong een indiaan is. Vanaf dat moment doet hij er alles aan om, ondanks zijn Hollandse ouders, een waarachtig indiaan te zijn..\n\nInfo:\n\nGeneral\nComplete name                    : De Indiaan-AC3-5,1-DVDRip-2009-Nederlands.avi\nFormat                           : AVI\nFormat/Info                      : Audio Video Interleave\nFile size                        : 1.31 GiB\nDuration                         : 1h 19mn\nOverall bit rate                 : 2 343 Kbps\nWriting application              : VirtualDubMod 1.5.4.1 (build 2178/release)\nWriting library                  : VirtualDubMod build 2178/release\n\nVideo\nID                               : 0\nFormat                           : MPEG-4 Visual\nFormat profile                   : Simple@L3\nFormat settings, BVOP            : No\nFormat settings, QPel            : No\nFormat settings, GMC             : No warppoints\nFormat settings, Matrix          : Default (H.263)\nCodec ID                         : XVID\nCodec ID/Hint                    : XviD\nDuration                         : 1h 19mn\nBit rate                         : 1 886 Kbps\nWidth                            : 640 pixels\nHeight                           : 352 pixels\nDisplay aspect ratio             : 16:9\nFrame rate                       : 25.000 fps\nResolution                       : 24 bits\nColorimetry                      : 4:2:0\nScan type                        : Progressive\nBits/(Pixel*Frame)               : 0.335\nStream size                      : 1.05 GiB (80%)\nWriting library                  : XviD 1.1.2 (UTC 2006-11-01)\n\nAudio\nID                               : 1\nFormat                           : AC-3\nFormat/Info                      : Audio Coding 3\nCodec ID                         : 2000\nDuration                         : 1h 19mn\nBit rate mode                    : Constant\nBit rate                         : 448 Kbps\nChannel(s)                       : 6 channels\nChannel positions                : Front: L C R, Surround: L R, LFE\nSampling rate                    : 48.0 KHz\nStream size                      : 256 MiB (19%)\nAlignment                        : Split accross interleaves\nInterleave, duration             : 40 ms (1.00 video frame)\nInterleave, preload duration     : 500 ms\n\nVeel plezier met deze film.","torrent":{"xt":"urn:btih:450911843bfea6b94ee7608702ac6c07dc041dd5","amp;dn":"De+Indiaan-AC3-5%2C1-DVDRip-2009-Nederlands","amp;tr":["udp%3A%2F%2Ftracker.openbittorrent.com%3A80","udp%3A%2F%2Fopen.demonii.com%3A1337","udp%3A%2F%2Ftracker.coppersurfer.tk%3A6969","udp%3A%2F%2Fexodus.desync.com%3A6969"],"infoHash":"450911843bfea6b94ee7608702ac6c07dc041dd5","infoHashBuffer":{"type":"Buffer","data":[69,9,17,132,59,254,166,185,78,231,96,135,2,172,108,7,220,4,29,213]},"announce":[],"urlList":[]}}